<svg xmlns="http://www.w3.org/2000/svg" xmlns:xlink="http://www.w3.org/1999/xlink" width="175" height="175.001" viewBox="0 0 175 175.001">
  <defs>
    <linearGradient id="linear-gradient" x1="0.5" x2="0.5" y2="1" gradientUnits="objectBoundingBox">
      <stop offset="0" stop-color="#43a8eb"/>
      <stop offset="1" stop-color="#5246f2"/>
    </linearGradient>
    <linearGradient id="linear-gradient-2" x1="0.5" x2="0.5" y2="1" gradientUnits="objectBoundingBox">
      <stop offset="0" stop-color="#ffbf00"/>
      <stop offset="1" stop-color="#ff9500"/>
    </linearGradient>
  </defs>
  <g id="你还没有任何评论哦_" data-name="你还没有任何评论哦~" transform="translate(333.996 7695)">
    <path id="联合_114" data-name="联合 114" d="M-288,183a4,4,0,0,1,4-4,4,4,0,0,1,4,4,4,4,0,0,1-4,4A4,4,0,0,1-288,183Zm19-8a8,8,0,0,1,8-8,8,8,0,0,1,8,8,8,8,0,0,1-8,8A8,8,0,0,1-269,175Zm-62.011-10.55c-19.887-1.132-44.6-.849-57.388-22.353S-392.1,85.5-360.845,78.145-308,50.98-284.99,32.587-236.409,45.32-227.6,66.543s-5.682,20.657-5.966,31.409,20.172,20.94,13.069,35.088c-6.893,13.73-85.76,31.459-108.59,31.459C-329.784,164.5-330.427,164.483-331.015,164.45ZM-342,42a12,12,0,0,1,12-12,12,12,0,0,1,12,12,12,12,0,0,1-12,12A12,12,0,0,1-342,42Zm91-17a4,4,0,0,1,4-4,4,4,0,0,1,4,4,4,4,0,0,1-4,4A4,4,0,0,1-251,25Zm-15-9a4,4,0,0,1,4-4,4,4,0,0,1,4,4,4,4,0,0,1-4,4A4,4,0,0,1-266,16Z" transform="translate(60.004 -7707)" fill="#1492e6" opacity="0.1"/>
    <g id="组_205" data-name="组 205" transform="translate(-312.996 -7686)">
      <path id="联合_125" data-name="联合 125" d="M16.442,100V90.423l-5.864,2.608a5.449,5.449,0,0,1-2.213.51,4.1,4.1,0,0,1-2.241-.687,66.185,66.185,0,0,1-4.892-4.866A6.844,6.844,0,0,1,.006,83.77L.014,38.712c0-4.517,2.951-9.506,6.578-11.119L67.418.51A5.47,5.47,0,0,1,69.63,0a3.491,3.491,0,0,1,2.493.879c.087.045,3.951,3.741,4.642,4.673a6.838,6.838,0,0,1,1.227,4.222l-.008,45.062c0,4.517-2.951,9.5-6.578,11.12L36.884,81.322,20.443,104h0Z" transform="translate(0.001 0)" fill="#300e89"/>
      <path id="减去_48" data-name="减去 48" d="M25.762,100.831h0V85.474L15.9,89.861a5.452,5.452,0,0,1-2.213.51,3.843,3.843,0,0,1-3.134-1.554A6.839,6.839,0,0,1,9.326,84.6l.008-45.059c0-4.517,2.951-9.5,6.578-11.119L76.737,1.34A5.452,5.452,0,0,1,78.949.83a3.843,3.843,0,0,1,3.136,1.555,6.839,6.839,0,0,1,1.227,4.222L83.3,51.666c0,4.517-2.951,9.5-6.578,11.119L42.2,78.152,25.763,100.829ZM57.556,54.054a1.363,1.363,0,0,0-.553.127L19.191,71.012a3.236,3.236,0,0,0-1.644,2.78,1.749,1.749,0,0,0,.277,1.016.975.975,0,0,0,.813.428,1.367,1.367,0,0,0,.554-.128L57,58.278a3.236,3.236,0,0,0,1.644-2.78,1.708,1.708,0,0,0-.307-1.055.961.961,0,0,0-.784-.389ZM74,31.354a1.365,1.365,0,0,0-.553.127L19.2,55.627a3.234,3.234,0,0,0-1.645,2.779c0,.864.438,1.445,1.09,1.445a1.367,1.367,0,0,0,.554-.128L73.447,35.574a3.235,3.235,0,0,0,1.641-2.779,1.71,1.71,0,0,0-.307-1.056A.961.961,0,0,0,74,31.351Zm0-15.385a1.363,1.363,0,0,0-.554.128L19.2,40.242a3.235,3.235,0,0,0-1.644,2.779c0,.863.438,1.444,1.09,1.444a1.358,1.358,0,0,0,.553-.127L73.447,20.189a3.235,3.235,0,0,0,1.641-2.779,1.71,1.71,0,0,0-.306-1.056A.96.96,0,0,0,74,15.966Z" transform="translate(-5.315 3.169)" fill="url(#linear-gradient)"/>
      <path id="减去_48-2" data-name="减去 48" d="M57.556,54.054a1.363,1.363,0,0,0-.553.127L19.191,71.012a3.236,3.236,0,0,0-1.644,2.78,1.749,1.749,0,0,0,.277,1.016.975.975,0,0,0,.813.428,1.367,1.367,0,0,0,.554-.128L57,58.278a3.236,3.236,0,0,0,1.644-2.78,1.708,1.708,0,0,0-.307-1.055.961.961,0,0,0-.784-.389ZM74,31.354a1.364,1.364,0,0,0-.553.127L19.2,55.627a3.234,3.234,0,0,0-1.645,2.779c0,.864.438,1.445,1.09,1.445a1.367,1.367,0,0,0,.554-.128L73.447,35.574a3.235,3.235,0,0,0,1.641-2.779,1.71,1.71,0,0,0-.307-1.056A.961.961,0,0,0,74,31.351Zm0-15.385a1.363,1.363,0,0,0-.554.128L19.2,40.242a3.235,3.235,0,0,0-1.644,2.779c0,.863.438,1.444,1.09,1.444a1.358,1.358,0,0,0,.553-.127L73.447,20.189a3.235,3.235,0,0,0,1.641-2.779,1.71,1.71,0,0,0-.306-1.056A.96.96,0,0,0,74,15.966Z" transform="translate(-5.315 3.169)" fill="#fff"/>
    </g>
    <path id="联合_125-2" data-name="联合 125" d="M-1103.194-6825V-6825h-1.194c-.137-3.266-1.6-6.182-2.638-7a6.134,6.134,0,0,1,4.306,2.739,35.718,35.718,0,0,0,1.055-5.739,12.1,12.1,0,0,1,2.21,5.053,22.94,22.94,0,0,1,3.428-1.14c-1.705,2.295-1.714,2.256-2,6.088Z" transform="translate(896.03 -769)" fill="url(#linear-gradient-2)"/>
    <g id="组_206" data-name="组 206" transform="translate(-1538.996 -6781)">
      <path id="路径_439" data-name="路径 439" d="M1342.139-827.5a9.843,9.843,0,0,0,9.32-7.745c1.091-4.706-.595-5.589-3.47-6.765.892-3.922-2.281-10.981-9.32-11.177s-9.518,4.02-10.014,10.785c-5.056,2.549-6.841,8.726-2.082,11.667s8.031-.49,8.626-.686C1335.893-829.849,1337.777-827.3,1342.139-827.5Z" transform="translate(-0.794 0.19)" fill="url(#linear-gradient)"/>
      <path id="路径_440" data-name="路径 440" d="M1337.131-813.661h1.667s.03-5.206-.032-11.767c0,0,5.364-8,5.36-8.363s-5.375,6.909-5.375,6.909c-.059-5.313-.207-11.836-.53-15.78-.24,2.228-.434,5.678-.6,9.742a55.026,55.026,0,0,0-4.316-3.513c-.018.227,4.242,4.421,4.242,4.421C1337.256-824.243,1337.131-813.661,1337.131-813.661Z" transform="translate(-1 0.661)" fill="#300e89"/>
    </g>
    <path id="路径_443" data-name="路径 443" d="M-184.8-7586.194h3.838c.3-2.465-3.013-3.215-.414-5C-183.3-7590.7-184.99-7589.628-184.8-7586.194Z" transform="translate(-10.18 -4.806)" fill="url(#linear-gradient-2)"/>
  </g>
</svg>
