<?xml version="1.0" standalone="no"?><!DOCTYPE svg PUBLIC "-//W3C//DTD SVG 1.1//EN" "http://www.w3.org/Graphics/SVG/1.1/DTD/svg11.dtd"><svg class="icon" width="200px" height="200.00px" viewBox="0 0 1024 1024" version="1.1" xmlns="http://www.w3.org/2000/svg"><path d="M30.298 914.67c-4.16 0-8.61-1.045-12.767-2.895-10.165-4.62-14.98-15.32-12.889-28.402 8.074-48.88 24.366-94.595 48.343-135.962 42.46-72.93 102.549-128.009 178.64-163.413 9.775-4.5 19.673-8.586 29.57-12.16 0.266-0.122 0.533-0.122 0.777-0.268 1.703-0.39 4.45-1.191 6.397-3.965 0.923-1.193 1.165-2.773 1.044-4.206-0.267-1.459-1.167-2.795-2.335-3.576-69.451-45.18-109.478-107.945-118.598-186.272-8.852-75.192 12.135-141.773 62.57-198.046 46.886-52.452 113.492-82.583 182.797-82.583 69.718 0 134.235 28.817 181.654 81.246 53.037 58.41 74.292 127.644 63.349 205.85-10.555 75.702-50.314 136.326-118.064 180.318-1.702 1.07-2.627 3.184-2.483 5.154 0.272 2.115 1.558 3.843 3.504 4.499 9.778 3.43 21.132 7.658 32.076 12.816C655.507 630.224 726.93 708.04 765.886 814.26c7.685 21.012 13.544 43.991 17.848 70.425 2.214 13.205-7.416 26.944-20.597 29.326-1.677 0.268-3.379 0.534-5.083 0.534-12.62 0-23.32-8.462-25.533-20.085-8.195-44.26-20.961-81.514-39.08-113.735C643.13 691.26 569.642 634.6 475.288 612.13c-29.448-7.003-58.508-10.553-86.523-10.553-84.7 0-162.103 32.222-229.974 95.643-52.792 49.269-86.911 112.567-101.379 187.855l-0.147 1.07c-1.288 6.736-2.48 13.058-6.518 18.213-5.056 6.616-12.375 10.313-20.448 10.313z m363.55-773.793c-109.963 0-199.624 91.045-200.013 202.932-0.123 54.181 20.45 105.176 57.973 143.476 37.814 38.569 88.37 59.846 142.455 59.991 110.62 0 200.135-91.165 200.283-203.198 0-111.765-89.785-202.933-200.283-203.2h-0.414v-0.001z m602.159 767.592c-6.517 0-12.643-2.626-17.192-7.538-4.84-5.154-7.175-12.28-6.663-19.82 3.915-60.5-9.63-116.262-40.369-165.53-41.973-67.239-102.037-109.528-178.663-125.773-7.44-1.58-14.858-2.505-22.032-3.431-4.547-0.534-8.973-1.07-13.544-1.844-10.823-1.727-19.285-10.58-20.061-21.134-0.925-12.158 5.472-22.347 16.292-25.898 34.387-11.382 64.224-32.782 88.59-63.542 24.902-31.47 39.103-67.386 41.974-106.756 4.304-56.686-12.11-106.9-48.613-149.02-27.747-31.978-63.057-53.11-105.15-62.885-17.728-4.11-35.698-4.767-52.526-4.767-11.332 0-20.45-7.393-22.788-18.505-1.457-6.736 0-13.205 3.894-18.361 4.302-5.665 11.329-9.119 19.307-9.362 3.646-0.146 7.15-0.268 10.798-0.268 33.096 0 64.368 6.469 92.917 19.285 76.213 34.215 124.047 91.557 142.284 170.543 19.285 83.773-0.778 159.475-59.676 225.132-3.647 4.084-7.684 7.929-11.72 11.77-2.993 2.75-5.861 5.398-8.997 8.17l-4.426 3.964c-1.436 1.34-2.092 3.184-1.704 5.154a5.633 5.633 0 0 0 3.528 4.112c20.183 7.124 37.522 14.783 52.768 23.514 64.248 36.454 111.546 89.297 140.995 157.218 19.673 45.717 28.283 95.641 25.533 148.75-0.778 14.275-7.415 23.662-18.747 26.287-2.094 0.267-4.038 0.535-6.01 0.535z m-597.196-0.923c-32.707-33.024-65.026-65.126-92.383-92.362-0.148-0.12-0.148-0.12-0.268-0.12a65939.471 65939.471 0 0 0 74.924-128.934l17.727-30.396 47.177 81.391c14.98 25.875 29.96 51.653 45.085 77.404 0.122 0.268 0.267 0.414 0.267 0.534l-0.389 0.39c-28.672 28.55-58.778 58.68-92.14 92.093z m0 0" fill="#000000" /></svg>