<?xml version="1.0" standalone="no"?><!DOCTYPE svg PUBLIC "-//W3C//DTD SVG 1.1//EN" "http://www.w3.org/Graphics/SVG/1.1/DTD/svg11.dtd"><svg class="icon" width="200px" height="200.00px" viewBox="0 0 1024 1024" version="1.1" xmlns="http://www.w3.org/2000/svg"><path d="M705.9 362.7c10.7 0 19.4-9.6 19.4-21.3 0-11.7-8.7-21.3-19.4-21.3H318.1c-10.7 0-19.4 9.6-19.4 21.3 0 11.7 8.7 21.3 19.4 21.3h387.8zM490.7 490.7H320c-11.7 0-21.3 9.6-21.3 21.3 0 11.7 9.6 21.3 21.3 21.3h170.7c11.7 0 21.3-9.6 21.3-21.3 0-11.7-9.6-21.3-21.3-21.3zM745.8 588.7c-8.4-16.9-32.5-17-40.9-0.1-58.6 117.3-169.1 338.2-169.1 338.2-7.6 15.2 3.5 33.1 20.5 33.1h338.1c17 0 28.1-17.9 20.5-33.1L745.8 588.7zM593.3 914.2l132-274.2 132 274.2h-264z" fill="#000000" /><path d="M704 757.3v32c0 11.7 9.6 21.3 21.3 21.3 11.7 0 21.3-9.6 21.3-21.3v-32c0-11.7-9.6-21.3-21.3-21.3-11.7 0-21.3 9.6-21.3 21.3z" fill="#000000" /><path d="M725.3 853.3m-21.3 0a21.3 21.3 0 1 0 42.6 0 21.3 21.3 0 1 0-42.6 0Z" fill="#000000" /><path d="M874.7 64H149.3c-23.5 0-42.7 19.2-42.7 42.7v810.7c0 23.5 19.2 42.7 42.7 42.7h320c11.7 0 21.3-9.6 21.3-21.3 0-11.7-9.6-21.3-21.3-21.3H170.7c-11.7 0-21.3-9.6-21.3-21.3V128c0-11.7 9.6-21.3 21.3-21.3h682.7c11.7 0 21.3 9.6 21.3 21.3v384c0 11.8 9.6 21.3 21.3 21.3s21.3-9.6 21.3-21.3V106.7c0-23.5-19.2-42.7-42.6-42.7z" fill="#000000" /></svg>